<svg width="118" height="117" viewBox="0 0 118 117" fill="none" xmlns="http://www.w3.org/2000/svg">
<path d="M42.054 48.0875C41.7072 47.9281 41.3274 47.7636 40.9126 47.586C40.7387 47.5116 40.5575 47.4344 40.3686 47.354C38.8969 46.7274 36.9557 45.9009 34.3656 44.6072C31.199 43.0256 26.8684 42.8334 22.4064 43.8187C17.9336 44.8064 13.2675 46.9894 9.39628 50.24C5.52305 53.4924 2.4328 57.8251 1.14656 63.1109C-0.140844 68.4015 0.389949 74.6026 3.68528 81.5661C6.58673 87.6973 10.4481 91.7484 14.8143 94.1962C19.1773 96.6423 24.0104 97.4682 28.8289 97.2069C38.2067 96.6984 47.5901 92.0706 53.5569 87.1161C56.2445 91.9288 55.4933 98.1582 53.5778 103.693C52.5917 106.542 51.3083 109.173 50.0693 111.275C48.8234 113.389 47.6439 114.931 46.8781 115.631C46.7257 115.77 46.6745 115.988 46.7491 116.181C46.8238 116.373 47.0089 116.5 47.2153 116.5H70.7847C70.9918 116.5 71.1775 116.372 71.2516 116.179C71.3257 115.985 71.2729 115.766 71.1187 115.628C70.481 115.055 69.3652 113.61 68.1405 111.554C66.9244 109.514 65.6253 106.913 64.6082 104.063C62.6319 98.5265 61.7621 92.1726 64.4526 87.1241C70.42 92.0756 79.7983 96.6987 89.1711 97.2069C93.9896 97.4682 98.8227 96.6423 103.186 94.1962C107.552 91.7484 111.413 87.6973 114.315 81.5661C117.61 74.6026 118.141 68.4015 116.853 63.1109C115.567 57.8251 112.477 53.4924 108.604 50.24C104.733 46.9894 100.066 44.8064 95.5936 43.8187C91.1316 42.8334 86.801 43.0256 83.6344 44.6072C81.0443 45.9009 79.1031 46.7274 77.6314 47.354C77.4425 47.4344 77.2613 47.5116 77.0874 47.586C76.6726 47.7636 76.2928 47.9281 75.946 48.0875C79.6913 42.275 83.308 33.8783 83.2704 25.4942C83.2494 20.7991 82.0817 16.0986 79.1395 11.8699C76.1977 7.6419 71.5066 3.92094 64.4975 1.14252C64.4752 1.13367 64.4523 1.12645 64.429 1.1209C59.7075 -0.00205255 55.2331 0.648839 53.5503 1.12632C53.5341 1.13091 53.5181 1.13632 53.5025 1.14252C46.4934 3.92094 41.8023 7.6419 38.8605 11.8699C35.9183 16.0986 34.7506 20.7991 34.7296 25.4942C34.692 33.8783 38.3087 42.275 42.054 48.0875Z" fill="#1B9AAA" stroke="#1B9AAA" stroke-linejoin="round"/>
<path d="M59 48L50.3397 63L67.6603 63L59 48ZM57.5 61.5L57.5 68L60.5 68L60.5 61.5L57.5 61.5Z" fill="#0E4F58"/>
</svg>
