<svg width="118" height="116" viewBox="0 0 118 116" fill="none" xmlns="http://www.w3.org/2000/svg">
<path d="M59.1742 115.48C59.3714 115.48 59.5503 115.364 59.6307 115.184C59.8899 114.603 60.5459 113.641 61.5619 112.346C62.567 111.064 63.8934 109.495 65.4582 107.713C68.5873 104.149 72.6537 99.7506 76.9743 95.1319C78.8686 93.107 80.812 91.0394 82.7462 88.9816C89.6273 81.6608 96.3929 74.463 100.417 69.7486C105.614 63.6595 113.331 49.9137 115.9 36.1426C117.185 29.2523 117.191 22.3086 114.903 16.3003C112.609 10.2736 108.023 5.23297 100.227 2.14628C94.6315 -0.249908 88.8032 -0.375349 83.5751 4.10384C78.4166 8.52335 73.9232 17.3647 70.7165 32.6509L57.6545 45.1386C57.4801 45.3053 57.4496 45.5727 57.582 45.7743L67.9539 61.5791L59.1516 90.7657L54.4938 61.4216C54.4789 61.3276 54.4374 61.2398 54.3743 61.1685L39.141 43.9696L46.9922 33.1997C47.0754 33.0855 47.1065 32.9414 47.0776 32.803C43.8689 17.4234 39.3627 8.53799 34.1872 4.10384C28.959 -0.375362 23.1307 -0.249908 17.5353 2.1463C9.74592 5.23015 5.05333 10.1706 2.62075 16.0769C0.194518 21.9677 0.0350607 28.7726 1.21231 35.5737C3.56494 49.1651 11.2863 62.9154 17.3517 69.7558C21.5073 74.4423 27.3981 80.7173 33.4187 87.1304C36.113 90.0004 38.8334 92.8981 41.4358 95.6935C45.648 100.218 49.552 104.475 52.5456 107.922C54.0426 109.645 55.3081 111.162 56.2692 112.405C57.2399 113.66 57.8712 114.601 58.1316 115.184C58.212 115.364 58.3908 115.48 58.5881 115.48H59.1742Z" fill="#811C0E" stroke="#811C0E" stroke-linejoin="round"/>
</svg>
