<svg width="118" height="116" viewBox="0 0 118 116" fill="none" xmlns="http://www.w3.org/2000/svg">
<path d="M59.4281 115.5C59.6254 115.5 59.8043 115.384 59.8847 115.204C60.1439 114.623 60.7999 113.661 61.8159 112.366C62.821 111.085 64.1474 109.515 65.7122 107.733C68.8412 104.169 72.9077 99.7706 77.2283 95.1519C79.1225 93.127 81.0659 91.0594 83.0002 89.0016C89.8813 81.6808 96.6468 74.483 100.671 69.7687C105.868 63.6795 113.585 49.9337 116.154 36.1627C117.439 29.2723 117.445 22.3287 115.157 16.3203C112.863 10.2936 108.277 5.25298 100.481 2.16629C94.8557 -0.241657 86.0856 -0.325518 77.9177 4.06311C69.8862 8.37845 62.4662 16.9987 59.1351 31.9133C55.804 16.9987 48.384 8.37845 40.3525 4.06311C32.1846 -0.32553 23.4145 -0.241656 17.7893 2.16631C9.99989 5.25017 5.30729 10.1906 2.87472 16.0969C0.448485 21.9878 0.289028 28.7926 1.46628 35.5938C3.8189 49.1851 11.5402 62.9354 17.6057 69.7758C21.7613 74.4623 27.6521 80.7373 33.6726 87.1504C36.367 90.0204 39.0873 92.9181 41.6898 95.7135C45.9019 100.238 49.806 104.495 52.7996 107.942C54.2966 109.665 55.5621 111.182 56.5232 112.425C57.4939 113.68 58.1252 114.621 58.3855 115.204C58.466 115.384 58.6448 115.5 58.8421 115.5H59.4281Z" fill="#F3B700" stroke="#F3B700" stroke-linejoin="round"/>
</svg>
