<svg width="92" height="117" viewBox="0 0 92 117" fill="none" xmlns="http://www.w3.org/2000/svg">
<path d="M46.4471 0.721018C46.3542 0.582861 46.1987 0.5 46.0322 0.5H45.9678C45.8013 0.5 45.6458 0.582861 45.5529 0.721018C37.5829 12.5747 18.8238 39.6465 7.50153 53.1792C-4.03466 66.9675 0.432153 83.9815 8.36551 91.9092C10.67 94.212 14.5625 96.5167 20.0417 96.4166C25.4201 96.3184 32.2598 93.9046 40.5673 87.0283C42.3142 90.159 44.8734 100.907 34.44 115.712C34.3325 115.865 34.3189 116.064 34.4049 116.23C34.4908 116.396 34.662 116.5 34.8487 116.5H57.1513C57.338 116.5 57.5092 116.396 57.5951 116.23C57.6811 116.064 57.6675 115.865 57.56 115.712C52.0457 107.887 50.0199 101.188 49.5881 96.1517C49.2019 91.6464 50.091 88.4931 50.8802 87.031C59.1941 93.9079 66.1693 96.3185 71.6805 96.4166C77.2917 96.5165 81.3246 94.2175 83.6345 91.9092C91.5678 83.9815 96.0347 66.9675 84.4985 53.1792C73.1762 39.6465 54.4171 12.5747 46.4471 0.721018Z" fill="#F3B700" stroke="#F3B700" stroke-linejoin="round"/>
<path d="M46 48L37.3397 63L54.6603 63L46 48ZM44.5 61.5L44.5 68L47.5 68L47.5 61.5L44.5 61.5Z" fill="#8F6B00"/>
</svg>
