<svg width="64" height="155" viewBox="0 0 64 155" fill="none" xmlns="http://www.w3.org/2000/svg">
<path d="M31.5292 32C9.12922 32 5.02916 41 5.02916 48L1.52916 83C1.36249 85.1667 1.82916 89.5 5.02916 89.5C9.02916 89.5 10.5292 88.5 11.0292 84.5C11.5292 80.5 12.5292 62 13.5292 60.5C14.5292 59 16.5292 59.5 16.5292 61.5C16.5292 63.5 14.5292 91 14.5292 112.5V148C14.5292 150 15.1292 154 21.5292 154C27.9292 154 29.1958 150 29.0292 148V96C29.0292 94.1667 29.9292 90.5 31.5292 90.5C33.1538 90.5 34.06 94.1667 34.06 96V148C33.8908 150 35.177 154 41.6757 154C48.1744 154 48.799 150 48.799 148V112.5C48.799 91 46.7682 63.5 46.7682 61.5C46.7682 59.5 48.799 59 49.8144 60.5C50.8299 62 51.8453 80.5 52.353 84.5C52.8607 88.5 54.3839 89.5 58.4455 89.5C61.6949 89.5 62.1687 85.1667 61.9995 83L58.4455 48C58.4455 41 54.2822 32 31.5368 32" stroke="#7FB069" stroke-width="2"/>
<circle cx="31.5292" cy="14.5" r="13.5" stroke="#7FB069" stroke-width="2"/>
</svg>
